<?xml version="1.0" encoding="UTF-8" standalone="no"?>
<!DOCTYPE svg PUBLIC "-//W3C//DTD SVG 1.1//EN" "http://www.w3.org/Graphics/SVG/1.1/DTD/svg11.dtd">
<svg width="100%" height="100%" viewBox="0 0 241 138" version="1.1" xmlns="http://www.w3.org/2000/svg" xmlns:xlink="http://www.w3.org/1999/xlink" xml:space="preserve" xmlns:serif="http://www.serif.com/" style="fill-rule:evenodd;clip-rule:evenodd;stroke-miterlimit:10;">
    <g transform="matrix(1,0,0,1,-190,-279)">
        <g id="Layer_4_1_">
            <g>
                <g>
                    <path d="M233.3,403L221.6,403L221.6,397.3C220.6,399.3 219.1,400.9 217.3,402.2C215.7,403.3 213.8,403.9 211.8,403.9C207.9,404 204.2,402 202.1,398.7C199.9,395.2 198.8,390.1 198.8,383.5C198.8,377.1 199.9,372.1 202.2,368.6C204.2,365.2 207.9,363.2 211.9,363.3C213.8,363.3 215.6,363.8 217.2,364.9C219,366.2 222.5,369.8 222.5,369.8L222.5,363.6L233.3,363.6L233.3,403ZM221.7,382.7C221.7,379.1 221.2,376.4 220.3,374.7C219.5,373 217.7,372 215.9,372.1C214.2,372 212.7,373 212,374.6C211.2,376.3 210.8,379 210.8,382.8C210.8,386.6 211.2,389.4 212.1,391.2C212.7,392.9 214.3,394 216.1,394C217.9,394.1 219.6,393 220.3,391.3C221.3,389.6 221.7,386.7 221.7,382.7Z" style="fill:rgb(20,77,91);fill-rule:nonzero;"/>
                    <path d="M274.8,403L263,403L263,397.2C262,399.2 260.6,400.8 258.8,402.1C257.1,403.2 255.2,403.8 253.2,403.7C249.4,403.8 245.8,401.8 243.9,398.4C241.7,394.9 240.6,389.8 240.6,383.3C240.6,376.8 241.7,371.8 244,368.4C246,365 249.7,363 253.6,363.2C255.4,363.2 257.2,363.7 258.8,364.7C260.5,365.9 262,367.4 263.1,369.2L263.1,341L274.8,341L274.8,403ZM263.1,382.7C263.1,378.9 262.7,376.2 261.8,374.5C261.1,372.9 259.4,371.9 257.6,372C255.9,371.9 254.4,373 253.7,374.5C252.9,376.2 252.5,378.9 252.5,382.8C252.5,386.7 252.9,389.4 253.8,391.3C254.4,393 256,394.1 257.8,394.1C259.5,394.2 261.1,393.1 261.7,391.5C262.7,389.8 263.1,386.9 263.1,382.7Z" style="fill:rgb(20,77,91);fill-rule:nonzero;"/>
                    <path d="M291,403L279.6,363.4L291.5,363.4L295.3,381.2C295.6,382.5 295.8,384.1 296.1,386C296.4,387.9 296.7,390.2 296.9,392.8C297.2,390.3 297.4,388.1 297.7,386.1C298,384.1 298.3,382.5 298.5,381.1L302.4,363.3L314.2,363.3L302.9,403L291,403Z" style="fill:rgb(20,77,91);fill-rule:nonzero;"/>
                    <path d="M328.7,385.9L328.7,386.6C328.4,389.6 329,391.8 330.1,393.4C331.3,395 333.1,395.9 335.1,395.8C336.4,395.8 337.6,395.4 338.6,394.7C339.7,393.8 340.5,392.6 341,391.4L351.5,391.4C350.7,395 348.5,398.3 345.5,400.5C342.3,402.8 338.4,404 334.4,403.8C328.9,403.8 324.5,402 321.3,398.3C318.1,394.6 316.4,389.7 316.4,383.4C316.4,377.1 318,372.1 321.3,368.4C324.5,364.7 328.9,362.9 334.4,362.9C340.2,362.9 344.6,364.7 347.6,368.3C350.6,371.9 352.1,377.3 352.1,384.4L352.1,386L328.7,386L328.7,385.9ZM341.4,379.6C341.3,376.7 340.7,374.6 339.7,373.2C337.3,370.6 333.1,370.4 330.5,372.9C330.4,373 330.2,373.2 330.1,373.3C329,374.7 328.4,376.9 328.4,379.6L341.4,379.6Z" style="fill:rgb(20,77,91);fill-rule:nonzero;"/>
                    <path d="M358.4,403L358.4,363.4L370.1,363.4L370.1,370.6C370.9,368.3 372.2,366.2 374,364.7C375.7,363.4 377.8,362.7 380,362.7L380,373.3L379.6,373.3C376.3,373.3 374,374 372.8,375.3C371.6,376.6 371,379.7 371,384.5L371,403L358.4,403Z" style="fill:rgb(20,77,91);fill-rule:nonzero;"/>
                    <path d="M384.5,403.1L384.5,341L396.2,341L396.2,369.3C397.7,367.5 399.2,366 400.9,364.8C402.5,363.8 404.3,363.3 406.1,363.3C410.1,363.1 413.8,365.2 415.8,368.7C418,372.3 419.1,377.5 419.1,384.4C419.1,390.6 418,395.4 415.7,398.9C413.8,402.2 410.2,404.2 406.4,404.1C404.4,404.1 402.4,403.6 400.7,402.4C398.9,401.1 397,397.5 397,397.5L397,403.2L384.5,403.1ZM402,372C400.2,371.9 398.5,372.9 397.8,374.6C396.9,376.3 396.5,379 396.5,382.7C396.5,386.7 396.9,389.7 397.8,391.4C398.5,393.1 400.1,394.1 401.9,394.1C403.7,394.1 405.3,393 405.9,391.3C406.8,389.4 407.2,386.5 407.2,382.5C407.2,378.8 406.8,376.1 406,374.5C405.3,373 403.7,372 402,372Z" style="fill:rgb(20,77,91);fill-rule:nonzero;"/>
                </g>
                <path d="M297.7,287L360.5,287C367.2,287 372.7,292.5 372.7,299.2L372.7,347.6C372.7,354.3 367.2,359.8 360.5,359.8L297.7,359.8C291,359.8 285.5,354.3 285.5,347.6L285.5,299.2C285.5,292.4 291,287 297.7,287Z" style="fill:none;fill-rule:nonzero;stroke:rgb(20,77,91);stroke-width:1.61px;"/>
                <g>
                    <path d="M291.1,350L307.2,296.9L317.5,296.9L333.8,350L324,350L320.4,338.3L303.4,338.3L300.4,350L291.1,350ZM317.9,329.2L313.2,312C313.1,311.5 312.9,310.6 312.7,309.4C312.5,308.2 312.3,306.7 312,304.9C311.7,306.6 311.5,308.2 311.3,309.5C311.1,310.8 310.9,311.8 310.8,312.2L306.2,329.1L317.9,329.2Z" style="fill:url(#_Linear1);fill-rule:nonzero;"/>
                    <path d="M337.7,350L337.7,296L344.9,296L344.9,315.2C345.4,316.3 345.4,317.3 345.3,318.4C345.2,319.5 345.1,320.5 345,321.5C346,319.4 347.5,317.6 349.4,316.1C351,315 352.9,314.4 354.8,314.4C358.6,314.3 362.2,316.1 364.2,319.2C366.5,322.4 367.6,326.9 367.6,332.7C367.6,338.3 366.5,342.7 364.2,346.1C361.9,349.5 358.9,351.1 355.2,351.1C353.2,351.2 351.2,350.6 349.5,349.6C347.8,348.4 345.9,344.8 345.9,344.8L346,349.9L337.7,350ZM345,332.6C345,335.7 345.6,338.1 346.9,339.8C349.1,342.7 353.3,343.2 356.2,341C356.6,340.7 357,340.3 357.4,339.8C358.7,338.1 359.3,335.7 359.3,332.6C359.3,329.5 358.7,327.1 357.4,325.3C356.2,323.6 354.2,322.5 352.1,322.6C350,322.5 348.1,323.6 346.9,325.3C345.5,327.5 344.8,330 345,332.6Z" style="fill:url(#_Linear2);fill-rule:nonzero;"/>
                </g>
            </g>
        </g>
    </g>
    <defs>
        <linearGradient id="_Linear1" x1="0" y1="0" x2="1" y2="0" gradientUnits="userSpaceOnUse" gradientTransform="matrix(42.6811,0,0,42.6811,291.064,323.408)"><stop offset="0" style="stop-color:rgb(236,77,151);stop-opacity:1"/><stop offset="0.51" style="stop-color:rgb(123,80,157);stop-opacity:1"/><stop offset="1" style="stop-color:rgb(47,134,195);stop-opacity:1"/></linearGradient>
        <linearGradient id="_Linear2" x1="0" y1="0" x2="1" y2="0" gradientUnits="userSpaceOnUse" gradientTransform="matrix(29.897,0,0,29.897,337.683,323.547)"><stop offset="0" style="stop-color:rgb(236,77,151);stop-opacity:1"/><stop offset="0.51" style="stop-color:rgb(123,80,157);stop-opacity:1"/><stop offset="1" style="stop-color:rgb(47,134,195);stop-opacity:1"/></linearGradient>
    </defs>
</svg>
