<svg xmlns="http://www.w3.org/2000/svg" xmlns:xlink="http://www.w3.org/1999/xlink" width="375" zoomAndPan="magnify" viewBox="0 0 375 374.999991" height="374.999991" preserveAspectRatio="xMidYMid meet" version="1.0"><defs><g><g id="id1"/><g id="id2"/></g></defs><rect x="-37.5" width="450" fill="rgb(100%, 100%, 100%)" y="-37.499999" height="449.999989" fill-opacity="1"/><rect x="-37.5" width="450" fill="rgb(100%, 100%, 100%)" y="-37.499999" height="449.999989" fill-opacity="1"/><rect x="-37.5" width="450" fill="rgb(100%, 100%, 100%)" y="-37.499999" height="449.999989" fill-opacity="1"/><g fill="rgb(100%, 34.118652%, 34.118652%)" fill-opacity="1"><g transform="translate(39.030525, 191.774429)"><g><path d="M 28.644531 -26.46875 C 28.300781 -28.328125 24.113281 -30.796875 23.207031 -28.382812 C 23.164062 -28.269531 23.15625 -27.78125 22.972656 -27.4375 C 22.480469 -26.363281 21.714844 -25.316406 21.058594 -24.277344 C 19.410156 -21.683594 17.765625 -19.085938 15.949219 -16.585938 L 13.402344 -13.199219 C 13.265625 -12.96875 10.984375 -10.207031 10.984375 -10.207031 C 11.210938 -10.121094 11.792969 -10.824219 11.941406 -10.949219 C 11.15625 -10.113281 7.917969 -6.609375 6.3125 -8.132812 C 4.941406 -9.410156 6.328125 -13.007812 6.785156 -14.457031 C 7.535156 -16.804688 8.332031 -19.210938 9.246094 -21.515625 C 11.089844 -26.027344 13.472656 -30.53125 16.339844 -34.488281 C 17.34375 -35.886719 18.890625 -38.363281 20.625 -38.90625 C 22.675781 -39.539062 21.269531 -35.015625 21.542969 -34.988281 C 21.597656 -34.996094 22.59375 -39.257812 20.71875 -39.078125 C 19.859375 -38.996094 18.792969 -37.703125 18.199219 -37.105469 C 17.46875 -36.277344 16.839844 -35.457031 16.214844 -34.640625 C 17.511719 -36.390625 20.578125 -40.527344 21.671875 -38.738281 C 22.191406 -37.8125 21.914062 -36.214844 21.738281 -35.226562 C 21.34375 -33.128906 20.5625 -31.105469 19.558594 -29.167969 C 19.601562 -29.28125 20.261719 -30.859375 20.261719 -30.859375 C 20.042969 -30.894531 18.257812 -27.472656 18.230469 -27.199219 C 18.242188 -27.09375 18.386719 -27.269531 18.539062 -27.390625 C 18.257812 -26.929688 18.179688 -26.597656 19.175781 -26.964844 C 20.898438 -27.617188 22.710938 -29.578125 23.882812 -30.9375 C 25.097656 -32.355469 26.535156 -34.332031 26.292969 -36.257812 C 26.222656 -37.007812 25.792969 -37.511719 25.675781 -38.203125 C 25.496094 -38.941406 25.441406 -39.480469 24.886719 -40.183594 C 23.285156 -42.195312 20.78125 -43.472656 18.242188 -42.847656 C 15.960938 -42.359375 14.183594 -40.5625 12.726562 -38.851562 C 11.949219 -37.910156 11.285156 -36.925781 10.570312 -35.9375 C 10.09375 -35.242188 9 -34.21875 8.871094 -33.339844 L 9.257812 -33.808594 C 8.691406 -32.941406 8.238281 -32.03125 7.816406 -31.34375 C 7.761719 -31.335938 8.078125 -32.015625 8.078125 -32.015625 C 7.683594 -32.140625 5.824219 -28.390625 5.640625 -28.046875 C 4.773438 -26.394531 4.011719 -24.75 3.53125 -22.972656 C 3.050781 -21.191406 2.414062 -19.398438 1.933594 -17.621094 C 1.609375 -16.503906 1.390625 -15.402344 1.222656 -14.304688 C 1.203125 -13.976562 1.25 -12.355469 1.382812 -12.640625 L 1.339844 -11.390625 L 1.25 -12.355469 C 1.054688 -12.121094 1.371094 -11.070312 1.378906 -11.015625 C 1.609375 -7.464844 5.425781 -2.6875 9.402344 -3.558594 C 11.738281 -4.050781 13.464844 -6.382812 14.804688 -8.191406 C 16.902344 -11.152344 18.753906 -14.417969 20.335938 -17.710938 C 18.929688 -12.050781 17.628906 -6.40625 16.054688 -0.839844 C 14.460938 4.566406 12.902344 10.292969 10.011719 15.171875 C 9.261719 16.382812 7.457031 18.992188 5.847656 17.46875 C 4.128906 15.902344 5.933594 11.613281 6.585938 9.925781 C 7.523438 7.289062 8.796875 4.785156 10.308594 2.472656 C 10.546875 2.125 12.882812 -0.589844 11.230469 -0.320312 C 10.429688 -0.191406 9.578125 1.082031 9.089844 1.617188 C 8.398438 2.332031 7.773438 3.152344 7.027344 3.820312 C 5.097656 5.738281 3.421875 8.007812 2.308594 10.5 C 0.492188 14.679688 1.367188 19.304688 6.167969 20.792969 C 7.617188 21.25 9.542969 21.550781 10.929688 20.769531 C 12.316406 19.984375 13.394531 18.257812 14.1875 16.9375 C 15.695312 14.570312 16.582031 11.996094 17.632812 9.40625 C 18.644531 6.980469 19.863281 4.425781 20.3125 1.785156 C 20.773438 -0.75 21.832031 -3.234375 22.5625 -5.796875 L 25.023438 -13.992188 C 25.414062 -15.546875 25.972656 -17.0625 26.316406 -18.554688 C 26.554688 -19.445312 26.398438 -19.972656 26.699219 -20.757812 C 27.273438 -22.113281 27.847656 -23.46875 28.367188 -24.816406 C 28.585938 -25.378906 28.753906 -25.882812 28.644531 -26.46875 Z M 5.113281 -23.988281 C 6.015625 -25.863281 6.914062 -27.789062 7.933594 -29.566406 C 8.667969 -30.9375 9.511719 -32.859375 10.648438 -33.996094 C 10.207031 -33.519531 9.871094 -32.515625 9.589844 -32.054688 C 8.980469 -31.074219 8.429688 -30.046875 7.871094 -29.074219 C 6.589844 -26.621094 5.21875 -24 4.335938 -21.371094 C 3.574219 -19.132812 2.621094 -16.65625 2.3125 -14.246094 C 2.640625 -17.578125 3.679688 -20.875 5.113281 -23.988281 Z M 26.195312 -21.523438 C 25.5625 -19.078125 24.929688 -16.636719 24.183594 -14.289062 C 23.5625 -12.28125 22.671875 -10.300781 22.210938 -8.308594 C 23.363281 -13.238281 24.894531 -18.148438 26.601562 -22.914062 Z M 20.878906 -4.171875 C 20.738281 -3.941406 20.597656 -3.710938 20.511719 -3.488281 L 20.929688 -4.773438 C 21.015625 -4.996094 21.207031 -5.234375 21.402344 -5.46875 C 21.222656 -5.070312 21.109375 -4.574219 20.878906 -4.171875 Z M 20.472656 -3.320312 L 20.511719 -3.488281 C 20.460938 -3.429688 20.464844 -3.375 20.472656 -3.320312 Z M 13.949219 -31.171875 C 13.957031 -31.121094 13.90625 -31.0625 13.855469 -31.054688 C 13.90625 -31.0625 13.957031 -31.121094 13.949219 -31.171875 Z M 13.949219 -31.171875 "/></g></g></g><g fill="rgb(36.079407%, 88.238525%, 90.19928%)" fill-opacity="1"><g transform="translate(68.904584, 188.903247)"><g><path d="M 23.394531 -15.730469 C 23.394531 -15.730469 23.453125 -15.679688 23.390625 -15.785156 C 23.085938 -16.132812 22.734375 -15.828125 22.371094 -15.6875 C 20.84375 -15.214844 19.269531 -14.683594 17.6875 -14.261719 C 18.09375 -16.25 18.488281 -18.34375 18.511719 -20.351562 C 18.546875 -21.113281 18.523438 -21.921875 18.289062 -22.65625 C 18.136719 -23.128906 17.925781 -23.597656 17.617188 -24 C 17.617188 -24 16.898438 -24.742188 17.097656 -24.328125 L 17.039062 -24.378906 L 16.785156 -24.785156 L 17.019531 -24.59375 C 17.042969 -24.917969 16.074219 -25.421875 16.074219 -25.421875 C 14.605469 -26.632812 12.679688 -27.476562 10.957031 -26.285156 C 9.890625 -25.53125 9.082031 -24.371094 8.433594 -23.226562 C 8.203125 -22.824219 7.976562 -22.371094 7.800781 -21.917969 C 7.628906 -21.46875 7.441406 -20.042969 7.140625 -19.796875 C 6.890625 -19.558594 6.09375 -19.425781 5.738281 -19.175781 C 5.222656 -18.910156 4.765625 -18.597656 4.367188 -18.234375 C 3.410156 -17.492188 2.691406 -16.5 2.027344 -15.515625 C 0.90625 -13.675781 0.445312 -11.683594 -0.300781 -9.878906 C -1.703125 -6.441406 0.589844 -2.332031 3.902344 -1.078125 C 4.96875 -0.695312 6.167969 -0.59375 7.230469 -0.804688 C 8.34375 -1.074219 9.359375 -1.765625 10.15625 -2.492188 C 10.902344 -3.160156 12.570312 -4.402344 12.804688 -5.34375 C 12.800781 -5.398438 12.699219 -5.335938 12.550781 -5.160156 L 13.933594 -7.132812 C 13.992188 -7.082031 13.613281 -6.507812 13.613281 -6.507812 C 14.003906 -6.382812 15.664062 -9.410156 15.855469 -9.644531 C 16.171875 -10.324219 16.480469 -11.058594 16.847656 -11.742188 C 17.175781 -12.261719 17.074219 -12.199219 17.589844 -12.464844 C 17.542969 -12.40625 18.21875 -12.6875 18.324219 -12.699219 C 18.90625 -12.863281 25.140625 -13.894531 23.394531 -15.730469 Z M 5.875 -3.109375 L 5.820312 -3.105469 C 1.429688 -2.03125 5.671875 -11.96875 5.726562 -12.515625 L 5.453125 -12.003906 C 6.101562 -13.6875 6.730469 -15.050781 7.0625 -15.515625 C 7.910156 -12.886719 10.90625 -12.148438 13.296875 -12.050781 C 12.042969 -8.792969 9.5625 -4.167969 5.875 -3.109375 Z M 15.015625 -18.984375 C 14.78125 -17.445312 14.652344 -15.429688 13.976562 -14.011719 C 13.757812 -13.449219 13.90625 -13.625 13.378906 -13.46875 C 13.066406 -13.328125 12.359375 -13.371094 12.03125 -13.394531 C 11.4375 -13.390625 10.730469 -13.429688 10.265625 -13.765625 C 9.449219 -14.335938 9.460938 -15.367188 9.480469 -16.289062 C 9.5 -17.210938 9.683594 -18.09375 9.925781 -18.984375 C 10.054688 -19.320312 10.910156 -21.136719 10.71875 -21.441406 C 10.648438 -21.597656 10.152344 -20.574219 10.101562 -20.515625 C 10.367188 -21.136719 10.660156 -21.492188 10.890625 -21.890625 C 10.835938 -21.886719 10.886719 -21.945312 10.929688 -22.058594 L 10.933594 -22.003906 L 10.976562 -22.117188 C 10.976562 -22.117188 10.972656 -22.171875 11.027344 -22.175781 C 11.726562 -23.324219 13.480469 -25.929688 14.710938 -24.371094 C 15.652344 -23.054688 15.152344 -20.351562 15.015625 -18.984375 Z M 10.976562 -22.117188 L 11.027344 -22.175781 C 11.03125 -22.121094 10.976562 -22.117188 10.976562 -22.117188 Z M 10.976562 -22.117188 "/></g></g></g><g fill="rgb(32.159424%, 44.309998%, 100%)" fill-opacity="1"><g transform="translate(89.878251, 186.887478)"><g><path d="M 23.394531 -15.730469 C 23.394531 -15.730469 23.453125 -15.679688 23.390625 -15.785156 C 23.085938 -16.132812 22.734375 -15.828125 22.371094 -15.6875 C 20.84375 -15.214844 19.269531 -14.683594 17.6875 -14.261719 C 18.09375 -16.25 18.488281 -18.34375 18.511719 -20.351562 C 18.546875 -21.113281 18.523438 -21.921875 18.289062 -22.65625 C 18.136719 -23.128906 17.925781 -23.597656 17.617188 -24 C 17.617188 -24 16.898438 -24.742188 17.097656 -24.328125 L 17.039062 -24.378906 L 16.785156 -24.785156 L 17.019531 -24.59375 C 17.042969 -24.917969 16.074219 -25.421875 16.074219 -25.421875 C 14.605469 -26.632812 12.679688 -27.476562 10.957031 -26.285156 C 9.890625 -25.53125 9.082031 -24.371094 8.433594 -23.226562 C 8.203125 -22.824219 7.976562 -22.371094 7.800781 -21.917969 C 7.628906 -21.46875 7.441406 -20.042969 7.140625 -19.796875 C 6.890625 -19.558594 6.09375 -19.425781 5.738281 -19.175781 C 5.222656 -18.910156 4.765625 -18.597656 4.367188 -18.234375 C 3.410156 -17.492188 2.691406 -16.5 2.027344 -15.515625 C 0.90625 -13.675781 0.445312 -11.683594 -0.300781 -9.878906 C -1.703125 -6.441406 0.589844 -2.332031 3.902344 -1.078125 C 4.96875 -0.695312 6.167969 -0.59375 7.230469 -0.804688 C 8.34375 -1.074219 9.359375 -1.765625 10.15625 -2.492188 C 10.902344 -3.160156 12.570312 -4.402344 12.804688 -5.34375 C 12.800781 -5.398438 12.699219 -5.335938 12.550781 -5.160156 L 13.933594 -7.132812 C 13.992188 -7.082031 13.613281 -6.507812 13.613281 -6.507812 C 14.003906 -6.382812 15.664062 -9.410156 15.855469 -9.644531 C 16.171875 -10.324219 16.480469 -11.058594 16.847656 -11.742188 C 17.175781 -12.261719 17.074219 -12.199219 17.589844 -12.464844 C 17.542969 -12.40625 18.21875 -12.6875 18.324219 -12.699219 C 18.90625 -12.863281 25.140625 -13.894531 23.394531 -15.730469 Z M 5.875 -3.109375 L 5.820312 -3.105469 C 1.429688 -2.03125 5.671875 -11.96875 5.726562 -12.515625 L 5.453125 -12.003906 C 6.101562 -13.6875 6.730469 -15.050781 7.0625 -15.515625 C 7.910156 -12.886719 10.90625 -12.148438 13.296875 -12.050781 C 12.042969 -8.792969 9.5625 -4.167969 5.875 -3.109375 Z M 15.015625 -18.984375 C 14.78125 -17.445312 14.652344 -15.429688 13.976562 -14.011719 C 13.757812 -13.449219 13.90625 -13.625 13.378906 -13.46875 C 13.066406 -13.328125 12.359375 -13.371094 12.03125 -13.394531 C 11.4375 -13.390625 10.730469 -13.429688 10.265625 -13.765625 C 9.449219 -14.335938 9.460938 -15.367188 9.480469 -16.289062 C 9.5 -17.210938 9.683594 -18.09375 9.925781 -18.984375 C 10.054688 -19.320312 10.910156 -21.136719 10.71875 -21.441406 C 10.648438 -21.597656 10.152344 -20.574219 10.101562 -20.515625 C 10.367188 -21.136719 10.660156 -21.492188 10.890625 -21.890625 C 10.835938 -21.886719 10.886719 -21.945312 10.929688 -22.058594 L 10.933594 -22.003906 L 10.976562 -22.117188 C 10.976562 -22.117188 10.972656 -22.171875 11.027344 -22.175781 C 11.726562 -23.324219 13.480469 -25.929688 14.710938 -24.371094 C 15.652344 -23.054688 15.152344 -20.351562 15.015625 -18.984375 Z M 10.976562 -22.117188 L 11.027344 -22.175781 C 11.03125 -22.121094 10.976562 -22.117188 10.976562 -22.117188 Z M 10.976562 -22.117188 "/></g></g></g><g fill="rgb(49.409485%, 85.099792%, 34.118652%)" fill-opacity="1"><g transform="translate(110.851917, 184.871708)"><g><path d="M 30.449219 -16.136719 L 30.441406 -16.191406 C 29.949219 -17.929688 27.820312 -14.746094 27.523438 -14.449219 C 26.132812 -12.582031 24.863281 -10.566406 23.652344 -8.554688 C 22.441406 -6.488281 21.285156 -4.429688 20.023438 -2.359375 C 19.417969 -1.324219 18.808594 -0.347656 18.085938 0.589844 C 17.847656 0.9375 17.292969 1.910156 16.808594 1.957031 C 14.933594 2.136719 15.652344 -5.566406 15.753906 -6.765625 C 15.875 -8.890625 15.769531 -11.695312 16.949219 -13.488281 C 17.230469 -13.945312 20.429688 -18.964844 20.429688 -18.964844 C 20.316406 -19.007812 19.941406 -18.429688 19.703125 -18.082031 L 21.710938 -21.414062 L 21.851562 -21.644531 L 21.90625 -21.652344 L 21.851562 -21.644531 L 22.222656 -22.277344 C 22.28125 -22.230469 22.238281 -22.117188 22.195312 -22.003906 L 22.625 -22.585938 L 23.847656 -24.542969 C 24.726562 -26.089844 25.542969 -27.738281 26.308594 -29.328125 C 27.523438 -31.9375 29.167969 -35.667969 27.804688 -38.570312 C 26.789062 -40.691406 23.796875 -40.835938 21.882812 -39.894531 C 20.488281 -39.21875 19.359375 -37.972656 18.457031 -36.695312 C 17.984375 -35.945312 17.523438 -35.144531 17.117188 -34.292969 C 16.976562 -34.0625 16.445312 -32.28125 16.304688 -32.050781 L 16.355469 -32.054688 C 16.089844 -31.433594 15.828125 -30.8125 15.667969 -30.203125 C 15.734375 -30.640625 15.921875 -31.527344 16.121094 -31.707031 C 15.722656 -31.34375 15.496094 -29.753906 15.402344 -29.582031 C 13.792969 -24.933594 12.457031 -20.253906 11.621094 -15.410156 C 10.011719 -16.933594 7.433594 -19.554688 5.007812 -18.292969 C 3 -17.234375 1.65625 -14.886719 0.769531 -12.851562 C -0.03125 -11.042969 -0.128906 -9.246094 -0.667969 -7.515625 C -1.628906 -4.554688 -1.65625 1.351562 2.609375 1.804688 C 3.921875 1.949219 5.027344 1.03125 5.980469 0.238281 C 7.671875 -1.277344 9.242188 -3 10.695312 -4.765625 C 10.699219 -1.894531 10.523438 2.453125 13.046875 4.484375 C 16.167969 7.109375 18.636719 2.917969 20.144531 0.609375 C 22.078125 -2.390625 23.496094 -5.667969 25.4375 -8.5625 C 26.386719 -9.953125 27.335938 -11.34375 28.347656 -12.632812 C 29.125 -13.574219 30.738281 -14.8125 30.449219 -16.136719 Z M 11.046875 -10.699219 C 11.007812 -10.53125 11.019531 -10.425781 11.019531 -10.425781 C 10.925781 -9.117188 11.035156 -7.992188 10.210938 -6.992188 C 9.488281 -6.054688 8.707031 -5.167969 7.925781 -4.28125 C 7.195312 -3.453125 5.472656 -1.066406 4.230469 -1.054688 C 2.710938 -1.074219 3.507812 -4.613281 4.058594 -6.777344 C 3.460938 -4.554688 2.507812 -0.945312 4.289062 -1.007812 C 4.777344 -1 5.539062 -1.507812 6.179688 -2.164062 C 5.59375 -1.511719 4.597656 -0.605469 3.921875 -0.863281 C 2.636719 -1.28125 3.417969 -4.441406 3.550781 -5.324219 C 4.007812 -7.855469 4.800781 -10.316406 5.765625 -12.683594 C 6.246094 -13.867188 6.929688 -15.773438 8.046875 -15.988281 L 7.792969 -15.800781 C 7.84375 -15.859375 7.894531 -15.863281 7.949219 -15.871094 C 8.316406 -16.011719 8.714844 -15.78125 9.003906 -15.59375 C 9.75 -15.175781 10.265625 -14.304688 10.816406 -13.65625 C 11.433594 -12.847656 11.148438 -11.898438 11.023438 -10.914062 Z M 18.492188 -23.921875 C 18.488281 -23.976562 18.476562 -24.082031 18.523438 -24.140625 L 18.519531 -24.195312 C 18.558594 -24.363281 18.605469 -24.421875 18.605469 -24.421875 L 18.601562 -24.472656 C 19.503906 -28.027344 20.515625 -31.589844 22.148438 -34.886719 C 22.554688 -35.738281 23.710938 -38.339844 25.011719 -37.757812 C 25.519531 -37.539062 25.695312 -36.851562 25.742188 -36.367188 C 26.265625 -33.167969 24.058594 -29.113281 22.695312 -26.382812 C 21.105469 -23.199219 19.296875 -20.046875 17.359375 -17.097656 L 18.421875 -18.445312 L 19.367188 -19.890625 L 16.972656 -16.085938 L 16.640625 -15.570312 L 16.449219 -15.332031 C 16.46875 -15.660156 16.707031 -16.007812 16.941406 -16.410156 C 16.84375 -16.292969 16.746094 -16.175781 16.703125 -16.0625 C 17.179688 -18.433594 17.707031 -20.816406 18.289062 -23.199219 C 18.242188 -23.140625 18.285156 -23.253906 18.320312 -23.472656 L 18.453125 -23.753906 C 18.449219 -23.808594 18.445312 -23.863281 18.492188 -23.921875 Z M 14.410156 -19.089844 C 14.328125 -18.8125 14.125 -17.546875 13.976562 -17.371094 C 13.984375 -17.316406 13.933594 -17.257812 13.882812 -17.253906 C 14.257812 -17.828125 13.921875 -18.5 14.074219 -19.164062 C 14.152344 -19.5 14.632812 -20.140625 14.699219 -20.578125 C 14.738281 -20.148438 14.542969 -19.375 14.410156 -19.089844 Z M 7.304688 -3.410156 C 8.535156 -4.71875 9.703125 -6.078125 10.8125 -7.480469 C 10.773438 -6.773438 9.222656 -5.433594 8.683594 -4.839844 C 8.054688 -4.078125 7.316406 -3.300781 6.574219 -2.582031 L 6.519531 -2.574219 Z M 14.90625 -24.0625 C 14.753906 -23.398438 14.539062 -22.785156 14.273438 -22.164062 C 14.464844 -22.992188 14.550781 -23.8125 14.851562 -24.601562 C 15.117188 -25.222656 15.421875 -26.007812 15.621094 -26.730469 C 15.4375 -25.847656 15.09375 -24.894531 14.90625 -24.0625 Z M 18.453125 -23.753906 L 18.289062 -23.199219 C 18.285156 -23.253906 18.328125 -23.363281 18.320312 -23.472656 Z M 7.546875 -15.5625 C 7.347656 -15.378906 7.207031 -15.148438 7.152344 -15.144531 C 7.261719 -15.152344 7.402344 -15.382812 7.546875 -15.5625 Z M 9.039062 -15.8125 C 9.152344 -15.769531 9.261719 -15.726562 9.378906 -15.628906 Z M 19.566406 -17.796875 C 19.5625 -17.851562 19.609375 -17.910156 19.660156 -17.96875 C 19.617188 -17.859375 19.566406 -17.796875 19.566406 -17.796875 Z M 19.660156 -17.96875 L 19.703125 -18.082031 C 19.707031 -18.027344 19.660156 -17.96875 19.660156 -17.96875 Z M 19.660156 -17.96875 "/></g></g></g><g fill="rgb(21.958923%, 71.369934%, 100%)" fill-opacity="1"><g transform="translate(137.929683, 182.816911)"><g><path d="M 4.125 -3.3125 C 4.125 -4.632812 4.507812 -5.769531 5.28125 -6.71875 C 6.050781 -7.675781 7.207031 -8.492188 8.75 -9.171875 C 10.289062 -9.847656 12.203125 -10.410156 14.484375 -10.859375 C 16.765625 -11.304688 19.410156 -11.679688 22.421875 -11.984375 C 24.285156 -12.171875 25.925781 -12.40625 27.34375 -12.6875 C 28.769531 -12.96875 29.96875 -13.3125 30.9375 -13.71875 C 31.90625 -14.125 32.632812 -14.609375 33.125 -15.171875 C 33.625 -15.734375 33.875 -16.394531 33.875 -17.15625 C 33.875 -17.914062 33.632812 -18.609375 33.15625 -19.234375 C 32.6875 -19.859375 31.992188 -20.382812 31.078125 -20.8125 C 30.171875 -21.25 29.054688 -21.585938 27.734375 -21.828125 C 26.410156 -22.066406 24.90625 -22.1875 23.21875 -22.1875 C 22.707031 -22.1875 22.148438 -22.171875 21.546875 -22.140625 C 20.941406 -22.117188 20.34375 -22.085938 19.75 -22.046875 C 19.15625 -22.015625 18.59375 -21.972656 18.0625 -21.921875 C 17.53125 -21.878906 17.078125 -21.835938 16.703125 -21.796875 C 18.359375 -21.734375 19.726562 -21.578125 20.8125 -21.328125 C 21.90625 -21.078125 22.773438 -20.769531 23.421875 -20.40625 C 24.066406 -20.039062 24.523438 -19.625 24.796875 -19.15625 C 25.066406 -18.695312 25.203125 -18.222656 25.203125 -17.734375 C 25.203125 -17.078125 24.953125 -16.484375 24.453125 -15.953125 C 23.960938 -15.429688 23.289062 -14.984375 22.4375 -14.609375 C 21.59375 -14.242188 20.609375 -13.960938 19.484375 -13.765625 C 18.359375 -13.566406 17.160156 -13.46875 15.890625 -13.46875 C 14.691406 -13.46875 13.519531 -13.5625 12.375 -13.75 C 11.238281 -13.9375 10.222656 -14.234375 9.328125 -14.640625 C 8.441406 -15.046875 7.726562 -15.554688 7.1875 -16.171875 C 6.644531 -16.796875 6.375 -17.550781 6.375 -18.4375 C 6.375 -19.082031 6.648438 -19.679688 7.203125 -20.234375 C 7.753906 -20.785156 8.53125 -21.289062 9.53125 -21.75 C 10.53125 -22.21875 11.726562 -22.632812 13.125 -23 C 14.53125 -23.375 16.066406 -23.6875 17.734375 -23.9375 C 19.410156 -24.1875 21.195312 -24.375 23.09375 -24.5 C 24.988281 -24.625 26.941406 -24.6875 28.953125 -24.6875 C 29.523438 -24.6875 30.316406 -24.679688 31.328125 -24.671875 C 32.347656 -24.660156 33.488281 -24.625 34.75 -24.5625 C 36.019531 -24.507812 37.375 -24.421875 38.8125 -24.296875 C 40.257812 -24.179688 41.6875 -24.007812 43.09375 -23.78125 C 44.5 -23.5625 45.847656 -23.273438 47.140625 -22.921875 C 48.441406 -22.578125 49.582031 -22.148438 50.5625 -21.640625 C 51.550781 -21.140625 52.335938 -20.539062 52.921875 -19.84375 C 53.515625 -19.15625 53.8125 -18.363281 53.8125 -17.46875 C 53.8125 -16.0625 53.226562 -14.875 52.0625 -13.90625 C 50.894531 -12.945312 49.113281 -12.15625 46.71875 -11.53125 C 44.320312 -10.90625 41.28125 -10.421875 37.59375 -10.078125 C 33.914062 -9.742188 29.570312 -9.492188 24.5625 -9.328125 C 21.8125 -9.234375 19.484375 -9.039062 17.578125 -8.75 C 15.671875 -8.457031 14.117188 -8.085938 12.921875 -7.640625 C 11.734375 -7.203125 10.875 -6.703125 10.34375 -6.140625 C 9.8125 -5.578125 9.546875 -4.976562 9.546875 -4.34375 C 9.546875 -4.132812 9.566406 -3.929688 9.609375 -3.734375 C 11.117188 -4.992188 13.609375 -5.890625 17.078125 -6.421875 C 20.554688 -6.953125 24.960938 -7.21875 30.296875 -7.21875 C 31.515625 -7.21875 32.71875 -7.207031 33.90625 -7.1875 C 35.101562 -7.175781 36.285156 -7.171875 37.453125 -7.171875 C 39.328125 -7.171875 41.097656 -7.242188 42.765625 -7.390625 C 44.441406 -7.535156 45.929688 -7.753906 47.234375 -8.046875 C 48.535156 -8.347656 49.601562 -8.710938 50.4375 -9.140625 C 51.269531 -9.578125 51.78125 -10.085938 51.96875 -10.671875 C 52.257812 -10.503906 52.578125 -10.28125 52.921875 -10 C 53.265625 -9.71875 53.585938 -9.375 53.890625 -8.96875 C 54.191406 -8.5625 54.441406 -8.097656 54.640625 -7.578125 C 54.847656 -7.066406 54.953125 -6.492188 54.953125 -5.859375 C 54.953125 -4.390625 54.648438 -3.179688 54.046875 -2.234375 C 53.441406 -1.296875 52.613281 -0.550781 51.5625 0 C 50.519531 0.550781 49.300781 0.9375 47.90625 1.15625 C 46.507812 1.375 45.015625 1.484375 43.421875 1.484375 C 41.890625 1.484375 40.269531 1.394531 38.5625 1.21875 C 36.863281 1.039062 35.125 0.816406 33.34375 0.546875 C 31.570312 0.273438 29.789062 -0.0078125 28 -0.3125 C 26.21875 -0.613281 24.472656 -0.898438 22.765625 -1.171875 C 21.066406 -1.441406 19.4375 -1.664062 17.875 -1.84375 C 16.320312 -2.019531 14.882812 -2.109375 13.5625 -2.109375 L 13.125 -2.109375 C 13.351562 -1.773438 13.46875 -1.453125 13.46875 -1.140625 C 13.46875 -0.804688 13.367188 -0.484375 13.171875 -0.171875 C 12.984375 0.128906 12.722656 0.398438 12.390625 0.640625 C 12.054688 0.878906 11.664062 1.070312 11.21875 1.21875 C 10.78125 1.375 10.304688 1.453125 9.796875 1.453125 C 9.035156 1.453125 8.3125 1.347656 7.625 1.140625 C 6.945312 0.941406 6.34375 0.644531 5.8125 0.25 C 5.289062 -0.144531 4.878906 -0.640625 4.578125 -1.234375 C 4.273438 -1.828125 4.125 -2.519531 4.125 -3.3125 Z M 4.125 -3.3125 "/></g></g></g><g fill="rgb(32.939148%, 32.939148%, 32.939148%)" fill-opacity="1"><g transform="translate(198.483073, 188.846394)"><g><path d="M 2.40625 -14.953125 C 0.800781 -14.953125 0 -15.832031 0 -17.59375 C 0 -21.382812 1.648438 -25.523438 4.953125 -30.015625 C 8.253906 -34.515625 12.316406 -38.304688 17.140625 -41.390625 C 21.972656 -44.484375 26.425781 -46.03125 30.5 -46.03125 C 31.46875 -46.03125 32.140625 -45.816406 32.515625 -45.390625 C 32.890625 -44.960938 33.078125 -44.257812 33.078125 -43.28125 C 33.078125 -41.007812 31.585938 -37.410156 28.609375 -32.484375 C 23.691406 -24.390625 17.476562 -16.023438 9.96875 -7.390625 C 9.851562 -7.273438 9.796875 -7.144531 9.796875 -7 C 9.796875 -6.863281 9.832031 -6.796875 9.90625 -6.796875 C 9.988281 -6.796875 10.144531 -6.914062 10.375 -7.15625 C 20 -15.945312 25.375 -20.910156 26.5 -22.046875 C 27.632812 -23.179688 32.585938 -27.707031 41.359375 -35.625 C 50.140625 -43.539062 54.722656 -47.5 55.109375 -47.5 C 55.503906 -47.5 55.703125 -47.285156 55.703125 -46.859375 C 55.703125 -45.453125 53.472656 -41.820312 49.015625 -35.96875 C 44.566406 -30.125 39.65625 -24.035156 34.28125 -17.703125 C 28.90625 -11.367188 23.988281 -5.242188 19.53125 0.671875 C 15.070312 6.597656 12.84375 10.320312 12.84375 11.84375 C 12.84375 12 12.929688 12.078125 13.109375 12.078125 C 13.285156 12.078125 13.703125 11.863281 14.359375 11.4375 C 15.023438 11.007812 15.398438 10.796875 15.484375 10.796875 C 15.796875 10.796875 15.953125 10.890625 15.953125 11.078125 C 15.953125 11.160156 15.875 11.257812 15.71875 11.375 C 14.113281 12.425781 13.054688 12.953125 12.546875 12.953125 C 12.117188 12.953125 11.90625 12.703125 11.90625 12.203125 C 11.90625 10.128906 13.359375 6.765625 16.265625 2.109375 C 19.179688 -2.535156 22.710938 -7.46875 26.859375 -12.6875 C 31.003906 -17.914062 35.15625 -23 39.3125 -27.9375 C 43.476562 -32.882812 47.015625 -37.097656 49.921875 -40.578125 C 52.835938 -44.054688 54.296875 -45.972656 54.296875 -46.328125 C 54.296875 -46.367188 54.253906 -46.390625 54.171875 -46.390625 C 54.097656 -46.390625 52.847656 -45.289062 50.421875 -43.09375 C 48.003906 -40.90625 45.015625 -38.179688 41.453125 -34.921875 C 37.898438 -31.660156 34.382812 -28.4375 30.90625 -25.25 C 27.425781 -22.0625 24.296875 -19.195312 21.515625 -16.65625 C 18.742188 -14.113281 14.894531 -10.523438 9.96875 -5.890625 C 5.039062 -1.253906 2.554688 1.078125 2.515625 1.109375 C 2.128906 1.503906 1.671875 1.703125 1.140625 1.703125 C 0.617188 1.703125 0.359375 1.613281 0.359375 1.4375 C 0.359375 1.257812 0.785156 0.601562 1.640625 -0.53125 C 2.503906 -1.664062 4.957031 -4.734375 9 -9.734375 C 13.050781 -14.734375 16.640625 -19.21875 19.765625 -23.1875 C 22.890625 -27.15625 25.78125 -31.191406 28.4375 -35.296875 C 31.09375 -39.398438 32.421875 -42.21875 32.421875 -43.75 C 32.421875 -44.375 32.273438 -44.8125 31.984375 -45.0625 C 31.691406 -45.320312 31.195312 -45.453125 30.5 -45.453125 C 28.070312 -45.453125 25.421875 -44.6875 22.546875 -43.15625 C 19.671875 -41.632812 16.984375 -39.726562 14.484375 -37.4375 C 11.984375 -35.15625 9.675781 -32.734375 7.5625 -30.171875 C 5.445312 -27.609375 3.773438 -25.171875 2.546875 -22.859375 C 1.316406 -20.554688 0.703125 -18.75 0.703125 -17.4375 C 0.703125 -16.132812 1.296875 -15.484375 2.484375 -15.484375 C 3.679688 -15.484375 5.050781 -15.875 6.59375 -16.65625 C 8.132812 -17.4375 9.59375 -18.375 10.96875 -19.46875 C 13.820312 -21.738281 16.050781 -23.769531 17.65625 -25.5625 L 18.703125 -26.734375 C 18.898438 -26.972656 19.066406 -27.09375 19.203125 -27.09375 C 19.335938 -27.09375 19.40625 -27.003906 19.40625 -26.828125 C 19.40625 -26.648438 19.285156 -26.429688 19.046875 -26.171875 C 18.816406 -25.921875 18.476562 -25.539062 18.03125 -25.03125 C 17.582031 -24.53125 16.671875 -23.632812 15.296875 -22.34375 C 13.929688 -21.050781 12.601562 -19.90625 11.3125 -18.90625 C 10.019531 -17.914062 8.539062 -17.007812 6.875 -16.1875 C 5.21875 -15.363281 3.726562 -14.953125 2.40625 -14.953125 Z M 2.40625 -14.953125 "/></g></g></g><g fill="rgb(32.939148%, 32.939148%, 32.939148%)" fill-opacity="1"><g transform="translate(228.153448, 188.846394)"><g><path d="M 13.953125 -13.1875 L 13.953125 -13.25 C 13.171875 -12.863281 12.3125 -11.9375 11.375 -10.46875 C 10.4375 -9 9.890625 -7.738281 9.734375 -6.6875 C 12.546875 -9.582031 13.953125 -11.75 13.953125 -13.1875 Z M 1.46875 -0.9375 C 2.945312 -0.9375 5.347656 -2.5 8.671875 -5.625 L 8.671875 -5.921875 C 8.671875 -7.128906 9.265625 -8.625 10.453125 -10.40625 C 11.648438 -12.1875 12.738281 -13.332031 13.71875 -13.84375 C 13.601562 -13.957031 13.445312 -14.015625 13.25 -14.015625 C 11.800781 -14.015625 9.40625 -12.351562 6.0625 -9.03125 C 2.726562 -5.707031 1.0625 -3.128906 1.0625 -1.296875 C 1.0625 -1.054688 1.195312 -0.9375 1.46875 -0.9375 Z M -0.359375 -1.765625 C -0.359375 -4.691406 1.332031 -7.609375 4.71875 -10.515625 C 8.101562 -13.429688 10.910156 -14.890625 13.140625 -14.890625 C 14.234375 -14.890625 14.78125 -14.398438 14.78125 -13.421875 C 14.78125 -10.648438 13.296875 -7.878906 10.328125 -5.109375 C 10.554688 -5.023438 10.789062 -4.984375 11.03125 -4.984375 C 12.125 -4.984375 13.707031 -5.664062 15.78125 -7.03125 L 16.0625 -6.453125 C 13.5625 -4.765625 11.664062 -3.921875 10.375 -3.921875 C 9.863281 -3.921875 9.492188 -4.019531 9.265625 -4.21875 C 7.742188 -2.96875 6.140625 -1.953125 4.453125 -1.171875 C 2.773438 -0.390625 1.550781 0 0.78125 0 C 0.0195312 0 -0.359375 -0.585938 -0.359375 -1.765625 Z M -0.359375 -1.765625 "/></g></g></g><g fill="rgb(32.939148%, 32.939148%, 32.939148%)" fill-opacity="1"><g transform="translate(241.757255, 188.846394)"><g><path d="M 10.609375 -6.28125 C 4.472656 -2.09375 0.566406 0 -1.109375 0 C -1.546875 0 -1.765625 -0.132812 -1.765625 -0.40625 C -1.765625 -1.5 -0.359375 -3.976562 2.453125 -7.84375 C 5.273438 -11.71875 8.523438 -15.828125 12.203125 -20.171875 C 8.441406 -20.253906 6.128906 -20.296875 5.265625 -20.296875 C 4.410156 -20.296875 3.984375 -20.507812 3.984375 -20.9375 C 3.984375 -21.09375 4.160156 -21.171875 4.515625 -21.171875 L 12.90625 -21 C 17.675781 -26.582031 20.3125 -29.375 20.8125 -29.375 C 21.875 -29.375 22.40625 -29.207031 22.40625 -28.875 C 22.40625 -28.539062 20.234375 -25.894531 15.890625 -20.9375 L 25.75 -20.765625 C 26.25 -20.765625 26.5 -20.691406 26.5 -20.546875 C 26.5 -20.410156 26.421875 -20.328125 26.265625 -20.296875 C 26.035156 -20.171875 24.101562 -20.109375 20.46875 -20.109375 L 15.1875 -20.109375 C 12.644531 -17.222656 10.785156 -15.125 9.609375 -13.8125 C 8.441406 -12.5 6.921875 -10.75 5.046875 -8.5625 C 1.566406 -4.5 -0.171875 -2.078125 -0.171875 -1.296875 C -0.171875 -1.140625 -0.0234375 -1.0625 0.265625 -1.0625 C 0.554688 -1.0625 1.539062 -1.519531 3.21875 -2.4375 C 4.90625 -3.351562 6.175781 -4.125 7.03125 -4.75 L 10.5625 -6.921875 Z M 10.609375 -6.28125 "/></g></g></g><g fill="rgb(32.939148%, 32.939148%, 32.939148%)" fill-opacity="1"><g transform="translate(250.259632, 188.846394)"><g><path d="M 14.78125 -15.078125 C 14.78125 -15.191406 14.703125 -15.25 14.546875 -15.25 C 13.484375 -15.25 11.835938 -14.328125 9.609375 -12.484375 C 7.390625 -10.648438 5.457031 -8.640625 3.8125 -6.453125 C 5.769531 -7.078125 8.085938 -8.484375 10.765625 -10.671875 C 13.441406 -12.859375 14.78125 -14.328125 14.78125 -15.078125 Z M 1.234375 -1.234375 C 1.234375 -0.722656 1.425781 -0.46875 1.8125 -0.46875 C 2.28125 -0.46875 3.335938 -0.789062 4.984375 -1.4375 C 6.628906 -2.082031 7.976562 -2.71875 9.03125 -3.34375 L 14.78125 -6.984375 L 14.84375 -6.21875 C 10.726562 -3.476562 7.664062 -1.734375 5.65625 -0.984375 C 3.644531 -0.242188 2.304688 0.125 1.640625 0.125 C 0.546875 0.125 0 -0.5625 0 -1.9375 C 0 -3.769531 0.660156 -5.601562 1.984375 -7.4375 C 3.316406 -9.28125 4.875 -10.785156 6.65625 -11.953125 C 8.4375 -13.128906 10.15625 -14.085938 11.8125 -14.828125 C 13.476562 -15.578125 14.738281 -15.953125 15.59375 -15.953125 C 16.457031 -15.953125 16.890625 -15.660156 16.890625 -15.078125 C 16.890625 -13.628906 15.175781 -11.867188 11.75 -9.796875 C 8.332031 -7.722656 5.488281 -6.351562 3.21875 -5.6875 C 1.894531 -3.769531 1.234375 -2.285156 1.234375 -1.234375 Z M 1.234375 -1.234375 "/></g></g></g></svg>